<?xml version="1.0" standalone="no"?><!DOCTYPE svg PUBLIC "-//W3C//DTD SVG 1.1//EN" "http://www.w3.org/Graphics/SVG/1.1/DTD/svg11.dtd"><svg t="1769149650486" class="icon" viewBox="0 0 1024 1024" version="1.1" xmlns="http://www.w3.org/2000/svg" p-id="21641" xmlns:xlink="http://www.w3.org/1999/xlink" width="200" height="200"><path d="M670.896552 419.444096H346.683386c-16.050157 0-31.565308 6.420063-42.800418 18.725183-11.23511 11.770115-17.120167 27.820272-17.120168 44.405434 2.140021 85.600836-1.605016 271.782654-3.210031 347.753396-0.535005 16.585162 5.885057 32.635319 17.120167 44.405433 11.23511 11.770115 26.750261 18.725183 42.800418 18.725183h338.658307c33.170324 0 59.920585-27.820272 59.920586-61.525601V492.204807l-71.155695-72.760711z m38.520376 412.489028c0 15.515152-12.30512 28.355277-27.285267 28.355277h-42.800418v-182.971787H377.713689v182.971787h-34.77534c-7.490073 0-14.445141-3.210031-19.795193-8.560083s-8.025078-12.840125-8.025079-20.330199c2.140021-94.695925 5.350052-266.432602 3.210032-349.358412 0-7.490073 2.675026-14.980146 7.490073-20.330198 5.350052-5.350052 12.30512-8.560084 19.795193-8.560084h31.565308v107.53605h261.08255V453.149425h18.725183l51.895507 52.965518v325.818181z" fill="#304BFD" p-id="21642"></path><path d="M455.824451 381.99373h173.876698v143.916406H455.824451z" fill="#FFFFFF" p-id="21643"></path><path d="M570.850575 419.444096h28.355277v64.200627h-28.355277zM332.77325 778.432602h30.495298v30.495298h-30.495298zM659.126437 778.432602h30.495298v30.495298h-30.495298zM407.138976 300.672936h21.400209c0-52.965517 42.800418-95.765935 95.765935-95.765935v-21.400209c-64.735632 0-117.166144 52.965517-117.166144 117.166144z" fill="#304BFD" p-id="21644"></path><path d="M883.828631 394.298851c0.535005-4.280042 0.535005-8.560084 0.535005-12.840126 0-78.645768-64.200627-142.31139-142.311389-142.31139h-29.425288c-31.030303-74.365726-102.721003-122.516196-182.971787-122.516196s-151.941484 48.15047-182.971786 122.516196H282.482759c-78.645768 0-142.31139 64.200627-142.31139 142.31139 0 4.280042 0 8.560084 0.535005 12.840126C77.040752 409.814002 31.030303 467.594566 31.030303 532.865204c0 78.645768 64.200627 142.31139 142.31139 142.31139h113.421107v-32.635319H173.876698c-60.990596 0-110.211076-49.220481-110.211076-110.211076 0-55.640543 41.730408-102.721003 96.835945-109.141066l17.655173-2.140021-3.745037-17.120167c-1.605016-7.490073-2.140021-14.980146-2.140021-22.47022 0-60.990596 49.220481-110.211076 110.211077-110.211076h86.670846l3.745037-10.700105C395.903866 193.671891 459.034483 149.266458 529.120167 149.266458c70.62069 0 133.216301 44.940439 156.756531 111.281086l3.745037 10.700105h52.430512c60.990596 0 110.211076 49.220481 110.211076 110.211076 0 7.490073-0.535005 14.980146-2.140021 22.47022l-3.745037 17.120167 17.655173 2.140021c55.105538 6.420063 96.835946 53.500522 96.835945 109.141066 0 60.990596-49.220481 110.211076-110.211076 110.211076H737.2372v32.635319h113.421107c78.645768 0 142.31139-64.200627 142.31139-142.31139 0-65.270637-45.475444-123.051202-109.141066-138.566353z" fill="#304BFD" p-id="21645"></path><path d="M631.306165 528.585162h-176.551724V379.318704h176.016719v149.266458z m-154.61651-21.400209h133.216301V400.718913H476.689655v106.46604z" fill="#304BFD" p-id="21646"></path></svg>